<?xml version="1.0" encoding="utf-8"?>
<!-- Generator: Adobe Illustrator 21.0.0, SVG Export Plug-In . SVG Version: 6.00 Build 0)  -->
<svg version="1.1" id="Laag_1" xmlns="http://www.w3.org/2000/svg" xmlns:xlink="http://www.w3.org/1999/xlink" x="0px" y="0px"
	 viewBox="0 0 99.2 99.2" style="enable-background:new 0 0 99.2 99.2;" xml:space="preserve">
<path d="M50.6,65.5l23.8,23.8c0.6,0.6,1.5,0.6,2,0L88.5,77c0.6-0.6,0.6-1.5,0-2L64.8,51.3c-0.6-0.6-0.6-1.5,0-2l23.8-23.8
	c0.6-0.6,0.6-1.5,0-2L76.3,11.3c-0.6-0.6-1.5-0.6-2,0L50.6,35.1c-0.6,0.6-1.5,0.6-2,0L24.8,11.3c-0.6-0.6-1.5-0.6-2,0L10.6,23.5
	c-0.6,0.6-0.6,1.5,0,2l23.8,23.8c0.6,0.6,0.6,1.5,0,2L10.6,75c-0.6,0.6-0.6,1.5,0,2l12.2,12.2c0.6,0.6,1.5,0.6,2,0l23.8-23.8
	C49.1,64.9,50,64.9,50.6,65.5z"/>
</svg>
