<?xml version="1.0" encoding="utf-8"?>
<!-- Generator: Adobe Illustrator 21.0.0, SVG Export Plug-In . SVG Version: 6.00 Build 0)  -->
<svg version="1.1" id="Laag_1" xmlns="http://www.w3.org/2000/svg" xmlns:xlink="http://www.w3.org/1999/xlink" x="0px" y="0px"
	 viewBox="0 0 212.6 48.6" style="enable-background:new 0 0 212.6 48.6;" xml:space="preserve">
<style type="text/css">
	.st0{fill:#21304A;}
	.st1{fill:#FFFFFF;}
</style>
<rect x="-162.6" y="-373.9" class="st0" width="181.1" height="48.6"/>
<g>
	<path class="st1" d="M29.2,12.5c2.4,0,4.9,0.5,7.3,1.5c6.5,2.7,12,8.9,16,17.4c-1.1-0.2-2.3-0.3-3.4-0.3c-7.2,0-14.3,4-19.8,11.1
		c-5.5-7.1-12.6-11.1-19.8-11.1c-1.2,0-2.3,0.1-3.4,0.3C11.4,19.6,20.1,12.5,29.2,12.5L29.2,12.5 M29.2,10.1
		c-11.2,0-21.7,9.6-27.3,25c0,0,0,0.1,0,0.1c0.1,0,0.1-0.1,0.2-0.1c2.4-1,4.9-1.5,7.3-1.5c7.5,0,14.6,4.8,19.8,12.9
		c5.2-8.1,12.3-12.9,19.8-12.9c2.4,0,4.9,0.5,7.3,1.5c0.1,0,0.1,0.1,0.2,0.1c0,0,0,0,0-0.1c-4-11.1-10.7-19.7-19.1-23.2
		C34.6,10.7,31.9,10.1,29.2,10.1L29.2,10.1z"/>
	<path class="st1" d="M2.1,24.9c10-3.9,20.2,0.5,27.1,10.3c6.9-9.8,17.1-14.2,27.1-10.3c0.1,0,0.1,0,0.2,0.1c0,0,0,0,0-0.1
		C52.5,14.9,45.8,7,37.4,3.8C23.3-1.6,8.8,7.6,1.9,24.9c0,0,0,0,0,0.1C1.9,25,2,25,2.1,24.9z"/>
</g>
<g>
	<path class="st1" d="M88,32.2c0-1.2-0.5-2.2-1.4-3c-0.9-0.8-2.5-1.5-4.8-2c-2.8-0.7-5-1.6-6.5-2.9c-1.6-1.3-2.3-2.9-2.3-4.9
		c0-2.1,0.8-3.8,2.5-5.2c1.7-1.4,3.9-2.1,6.5-2.1c2.9,0,5.2,0.8,6.9,2.4c1.7,1.6,2.5,3.4,2.5,5.5l0,0.1h-3.4c0-1.5-0.5-2.8-1.5-3.7
		c-1-1-2.5-1.4-4.4-1.4c-1.8,0-3.1,0.4-4.1,1.2c-0.9,0.8-1.4,1.8-1.4,3.1c0,1.1,0.5,2.1,1.5,2.9c1,0.8,2.7,1.4,5,2
		c2.8,0.7,4.9,1.7,6.3,3c1.4,1.3,2.2,3,2.2,5c0,2.1-0.9,3.8-2.6,5.1s-4,1.9-6.8,1.9c-2.6,0-5-0.7-7-2.1c-2-1.4-3-3.3-2.9-5.7l0-0.1
		h3.4c0,1.7,0.6,3,1.9,3.9c1.2,0.9,2.8,1.3,4.6,1.3c1.8,0,3.2-0.4,4.3-1.1C87.5,34.5,88,33.5,88,32.2z"/>
	<path class="st1" d="M108.5,36c-0.6,1-1.4,1.9-2.4,2.4c-1,0.6-2.1,0.9-3.3,0.9c-2.1,0-3.8-0.7-5-2c-1.2-1.4-1.8-3.5-1.8-6.4V19.3
		h3.6v11.6c0,2.1,0.3,3.5,0.9,4.3c0.6,0.8,1.6,1.2,2.9,1.2c1.3,0,2.3-0.3,3.1-0.8c0.8-0.5,1.5-1.2,1.9-2.2V19.3h3.6v19.6h-3.2
		L108.5,36z"/>
	<path class="st1" d="M133.9,29.8c0,2.8-0.7,5.1-2,6.8s-3.2,2.6-5.6,2.6c-1.3,0-2.4-0.3-3.4-0.8c-1-0.5-1.7-1.2-2.4-2.2l-0.4,2.6
		h-2.9V10.6h3.6v11c0.6-0.9,1.4-1.5,2.3-2c0.9-0.5,2-0.7,3.2-0.7c2.4,0,4.3,1,5.6,2.9c1.4,1.9,2,4.5,2,7.6V29.8z M130.3,29.4
		c0-2.2-0.4-4.1-1.2-5.5c-0.8-1.4-2.1-2.1-3.8-2.1c-1.1,0-2,0.3-2.8,0.8s-1.4,1.3-1.8,2.2v8.5c0.5,1,1.1,1.7,1.8,2.3
		s1.7,0.8,2.8,0.8c1.7,0,2.9-0.6,3.7-1.8c0.8-1.2,1.2-2.8,1.2-4.7V29.4z"/>
	<path class="st1" d="M142.9,14.5v4.7h3.7v2.6h-3.7v11.9c0,0.9,0.2,1.6,0.6,1.9c0.4,0.4,0.9,0.6,1.5,0.6c0.2,0,0.4,0,0.7-0.1
		c0.2,0,0.5-0.1,0.7-0.2l0.5,2.4c-0.3,0.2-0.7,0.4-1.2,0.5c-0.5,0.1-1,0.2-1.5,0.2c-1.4,0-2.6-0.4-3.5-1.3c-0.9-0.9-1.3-2.2-1.3-4.1
		V21.9h-3.1v-2.6h3.1v-4.7H142.9z"/>
	<path class="st1" d="M159.1,39.2c-2.7,0-4.9-0.9-6.5-2.7c-1.6-1.8-2.4-4.2-2.4-7.1v-0.8c0-2.8,0.8-5.1,2.5-7
		c1.7-1.9,3.6-2.8,5.9-2.8c2.6,0,4.6,0.8,6,2.4c1.4,1.6,2,3.7,2,6.4v2.2h-12.7l-0.1,0.1c0,1.9,0.5,3.4,1.4,4.6
		c0.9,1.2,2.2,1.8,3.9,1.8c1.2,0,2.3-0.2,3.2-0.5c0.9-0.3,1.7-0.8,2.4-1.4l1.4,2.3c-0.7,0.7-1.6,1.3-2.8,1.7
		C162.1,39,160.8,39.2,159.1,39.2z M158.6,21.7c-1.2,0-2.2,0.5-3.1,1.5c-0.8,1-1.4,2.3-1.6,3.8l0,0.1h9v-0.5c0-1.4-0.4-2.6-1.1-3.5
		C161.2,22.2,160.1,21.7,158.6,21.7z"/>
	<path class="st1" d="M179.9,22.4l-1.8-0.1c-0.9,0-1.7,0.2-2.4,0.7c-0.6,0.4-1.1,1.1-1.5,1.9v14h-3.6V19.3h3.2l0.3,2.9
		c0.6-1,1.2-1.8,2.1-2.4c0.8-0.6,1.8-0.9,2.8-0.9c0.3,0,0.5,0,0.8,0.1c0.2,0,0.4,0.1,0.6,0.1L179.9,22.4z"/>
	<path class="st1" d="M192.6,22.4l-1.8-0.1c-0.9,0-1.7,0.2-2.4,0.7c-0.6,0.4-1.1,1.1-1.5,1.9v14h-3.6V19.3h3.2l0.3,2.9
		c0.6-1,1.2-1.8,2.1-2.4c0.8-0.6,1.8-0.9,2.8-0.9c0.3,0,0.5,0,0.8,0.1c0.2,0,0.4,0.1,0.6,0.1L192.6,22.4z"/>
	<path class="st1" d="M206.8,38.8c-0.1-0.6-0.2-1.1-0.3-1.6c-0.1-0.5-0.1-0.9-0.1-1.4c-0.7,0.9-1.5,1.7-2.6,2.4
		c-1.1,0.6-2.2,0.9-3.4,0.9c-2,0-3.6-0.5-4.7-1.6c-1.1-1-1.6-2.5-1.6-4.3c0-1.9,0.8-3.3,2.3-4.4s3.6-1.6,6.2-1.6h3.9v-1.9
		c0-1.1-0.3-2.1-1-2.7s-1.7-1-3-1c-1.1,0-2.1,0.3-2.8,0.9c-0.7,0.6-1.1,1.3-1.1,2.1h-3.4l0-0.1c-0.1-1.4,0.6-2.7,2-3.9
		c1.4-1.2,3.2-1.8,5.5-1.8c2.2,0,4,0.6,5.4,1.7c1.4,1.1,2,2.8,2,4.9v9.4c0,0.7,0,1.4,0.1,2c0.1,0.7,0.2,1.3,0.4,1.9H206.8z
		 M200.9,36.2c1.3,0,2.5-0.3,3.5-1s1.7-1.4,2-2.3v-3.2h-4c-1.4,0-2.6,0.4-3.4,1.1s-1.3,1.6-1.3,2.5c0,0.9,0.3,1.6,0.8,2.1
		C199,36,199.8,36.2,200.9,36.2z"/>
</g>
</svg>
